<svg xmlns="http://www.w3.org/2000/svg" viewBox="0 0 900 360" width="900" height="360" role="img"><title>Data, cloud and tools</title><defs>
<filter id="r" filterUnits="userSpaceOnUse" x="-20" y="-20" width="4000" height="2000"><feTurbulence type="fractalNoise" baseFrequency="0.02" numOctaves="2" seed="4" result="n"/><feDisplacementMap in="SourceGraphic" in2="n" scale="3"/></filter>
<pattern id="dots" width="24" height="24" patternUnits="userSpaceOnUse"><circle cx="12" cy="12" r="1.2" fill="#c7d0d4"/></pattern>
<pattern id="cloth" width="6" height="6" patternUnits="userSpaceOnUse" patternTransform="rotate(45)"><rect width="6" height="2" fill="#ffffff" opacity="0.05"/></pattern>
<linearGradient id="coil" x1="0" y1="0" x2="0" y2="1"><stop offset="0" stop-color="#c9d1d5"/><stop offset="0.55" stop-color="#6f7b82"/><stop offset="1" stop-color="#3f484d"/></linearGradient>
</defs><defs><clipPath id="clip"><rect x="0" y="0" width="892" height="350" rx="8"/></clipPath></defs><rect x="6" y="8" width="892" height="350" rx="8" fill="#000" opacity="0.18"/><g clip-path="url(#clip)"><rect width="892" height="350" fill="#fbfcfa"/><rect width="892" height="350" fill="url(#dots)"/><text x="90" y="68" font-family="'Segoe Print','Bradley Hand','Chalkboard SE','Comic Sans MS',cursive" font-size="44" font-weight="700" fill="#22282c" textLength="494" lengthAdjust="spacingAndGlyphs">Data, cloud &amp; tools</text><path d="M86 80 Q337.0 74 588 78" fill="none" stroke="#0a7cae" stroke-width="4" stroke-linecap="round" filter="url(#r)"/><text x="850" y="62" font-family="'Segoe Print','Bradley Hand','Chalkboard SE','Comic Sans MS',cursive" font-size="22" font-weight="700" fill="#cf4437" text-anchor="end" transform="rotate(-2 850 62)" textLength="156" lengthAdjust="spacingAndGlyphs">daily drivers</text><g transform="rotate(-0.3 280.5 142.0)"><rect x="91" y="100" width="385" height="92" rx="7" fill="#000" opacity="0.08"/><rect x="88" y="96" width="385" height="92" rx="7" fill="#fbfcfa"/><rect x="88" y="96" width="385" height="92" rx="7" fill="none" stroke="#55626a" stroke-width="2" filter="url(#r)"/></g><text x="102" y="122" font-family="'Segoe Print','Bradley Hand','Chalkboard SE','Comic Sans MS',cursive" font-size="26" font-weight="700" fill="#22282c" textLength="117" lengthAdjust="spacingAndGlyphs">Databases</text><text x="459" y="120" font-family="'Courier New',Courier,monospace" font-size="13" font-weight="400" fill="#55626a" text-anchor="end" textLength="7" lengthAdjust="spacingAndGlyphs">5</text><rect x="102.0" y="130" width="66.4" height="22" rx="4" fill="#fbfcfa" stroke="#55626a" stroke-width="1.4"/><text x="110" y="146" font-family="'Courier New',Courier,monospace" font-size="12" font-weight="400" fill="#22282c" textLength="50" lengthAdjust="spacingAndGlyphs">MongoDB</text><rect x="176.4" y="130" width="52.0" height="22" rx="4" fill="#fbfcfa" stroke="#55626a" stroke-width="1.4"/><text x="184.4" y="146" font-family="'Courier New',Courier,monospace" font-size="12" font-weight="400" fill="#22282c" textLength="36" lengthAdjust="spacingAndGlyphs">MySQL</text><rect x="236.4" y="130" width="88.0" height="22" rx="4" fill="#fbfcfa" stroke="#55626a" stroke-width="1.4"/><text x="244.4" y="146" font-family="'Courier New',Courier,monospace" font-size="12" font-weight="400" fill="#22282c" textLength="72" lengthAdjust="spacingAndGlyphs">SQL Server</text><rect x="332.4" y="130" width="59.2" height="22" rx="4" fill="#fbfcfa" stroke="#55626a" stroke-width="1.4"/><text x="340.4" y="146" font-family="'Courier New',Courier,monospace" font-size="12" font-weight="400" fill="#22282c" textLength="43" lengthAdjust="spacingAndGlyphs">SQLite</text><rect x="102.0" y="158" width="73.6" height="22" rx="4" fill="#fbfcfa" stroke="#55626a" stroke-width="1.4"/><text x="110" y="174" font-family="'Courier New',Courier,monospace" font-size="12" font-weight="400" fill="#22282c" textLength="57" lengthAdjust="spacingAndGlyphs">Firebase</text><g transform="rotate(0.3 677.5 142.0)"><rect x="488" y="100" width="385" height="92" rx="7" fill="#000" opacity="0.08"/><rect x="485" y="96" width="385" height="92" rx="7" fill="#fbfcfa"/><rect x="485" y="96" width="385" height="92" rx="7" fill="none" stroke="#55626a" stroke-width="2" filter="url(#r)"/></g><text x="499" y="122" font-family="'Segoe Print','Bradley Hand','Chalkboard SE','Comic Sans MS',cursive" font-size="26" font-weight="700" fill="#22282c" textLength="208" lengthAdjust="spacingAndGlyphs">Cloud &amp; Transfer</text><text x="856" y="120" font-family="'Courier New',Courier,monospace" font-size="13" font-weight="400" fill="#55626a" text-anchor="end" textLength="7" lengthAdjust="spacingAndGlyphs">3</text><rect x="499.0" y="130" width="160.0" height="22" rx="4" fill="#fbfcfa" stroke="#55626a" stroke-width="1.4"/><text x="507" y="146" font-family="'Courier New',Courier,monospace" font-size="12" font-weight="400" fill="#22282c" textLength="144" lengthAdjust="spacingAndGlyphs">Google Cloud Storage</text><rect x="667.0" y="130" width="80.8" height="22" rx="4" fill="#fbfcfa" stroke="#55626a" stroke-width="1.4"/><text x="675.0" y="146" font-family="'Courier New',Courier,monospace" font-size="12" font-weight="400" fill="#22282c" textLength="64" lengthAdjust="spacingAndGlyphs">FileZilla</text><rect x="755.8" y="130" width="59.2" height="22" rx="4" fill="#fbfcfa" stroke="#55626a" stroke-width="1.4"/><text x="763.8" y="146" font-family="'Courier New',Courier,monospace" font-size="12" font-weight="400" fill="#22282c" textLength="43" lengthAdjust="spacingAndGlyphs">Docker</text><g transform="rotate(0.3 280.5 246.0)"><rect x="91" y="204" width="385" height="92" rx="7" fill="#000" opacity="0.08"/><rect x="88" y="200" width="385" height="92" rx="7" fill="#fbfcfa"/><rect x="88" y="200" width="385" height="92" rx="7" fill="none" stroke="#55626a" stroke-width="2" filter="url(#r)"/></g><text x="102" y="226" font-family="'Segoe Print','Bradley Hand','Chalkboard SE','Comic Sans MS',cursive" font-size="26" font-weight="700" fill="#22282c" textLength="65" lengthAdjust="spacingAndGlyphs">Tools</text><text x="459" y="224" font-family="'Courier New',Courier,monospace" font-size="13" font-weight="400" fill="#55626a" text-anchor="end" textLength="7" lengthAdjust="spacingAndGlyphs">7</text><rect x="102.0" y="234" width="37.6" height="22" rx="4" fill="#fbfcfa" stroke="#55626a" stroke-width="1.4"/><text x="110" y="250" font-family="'Courier New',Courier,monospace" font-size="12" font-weight="400" fill="#22282c" textLength="21" lengthAdjust="spacingAndGlyphs">Git</text><rect x="147.6" y="234" width="59.2" height="22" rx="4" fill="#fbfcfa" stroke="#55626a" stroke-width="1.4"/><text x="155.6" y="250" font-family="'Courier New',Courier,monospace" font-size="12" font-weight="400" fill="#22282c" textLength="43" lengthAdjust="spacingAndGlyphs">GitHub</text><rect x="214.8" y="234" width="66.4" height="22" rx="4" fill="#fbfcfa" stroke="#55626a" stroke-width="1.4"/><text x="222.8" y="250" font-family="'Courier New',Courier,monospace" font-size="12" font-weight="400" fill="#22282c" textLength="50" lengthAdjust="spacingAndGlyphs">Postman</text><rect x="289.2" y="234" width="109.6" height="22" rx="4" fill="#fbfcfa" stroke="#55626a" stroke-width="1.4"/><text x="297.20000000000005" y="250" font-family="'Courier New',Courier,monospace" font-size="12" font-weight="400" fill="#22282c" textLength="93" lengthAdjust="spacingAndGlyphs">Visual Studio</text><rect x="102.0" y="262" width="66.4" height="22" rx="4" fill="#fbfcfa" stroke="#55626a" stroke-width="1.4"/><text x="110" y="278" font-family="'Courier New',Courier,monospace" font-size="12" font-weight="400" fill="#22282c" textLength="50" lengthAdjust="spacingAndGlyphs">VS Code</text><rect x="176.4" y="262" width="116.8" height="22" rx="4" fill="#fbfcfa" stroke="#55626a" stroke-width="1.4"/><text x="184.4" y="278" font-family="'Courier New',Courier,monospace" font-size="12" font-weight="400" fill="#22282c" textLength="100" lengthAdjust="spacingAndGlyphs">Android Studio</text><rect x="301.2" y="262" width="52.0" height="22" rx="4" fill="#fbfcfa" stroke="#55626a" stroke-width="1.4"/><text x="309.2" y="278" font-family="'Courier New',Courier,monospace" font-size="12" font-weight="400" fill="#22282c" textLength="36" lengthAdjust="spacingAndGlyphs">Linux</text><g transform="rotate(-0.3 677.5 246.0)"><rect x="488" y="204" width="385" height="92" rx="7" fill="#000" opacity="0.08"/><rect x="485" y="200" width="385" height="92" rx="7" fill="#fbfcfa"/><rect x="485" y="200" width="385" height="92" rx="7" fill="none" stroke="#55626a" stroke-width="2" filter="url(#r)"/></g><text x="499" y="226" font-family="'Segoe Print','Bradley Hand','Chalkboard SE','Comic Sans MS',cursive" font-size="26" font-weight="700" fill="#22282c" textLength="117" lengthAdjust="spacingAndGlyphs">Practices</text><text x="856" y="224" font-family="'Courier New',Courier,monospace" font-size="13" font-weight="400" fill="#55626a" text-anchor="end" textLength="7" lengthAdjust="spacingAndGlyphs">2</text><rect x="499.0" y="234" width="181.6" height="22" rx="4" fill="#fbfcfa" stroke="#55626a" stroke-width="1.4"/><text x="507" y="250" font-family="'Courier New',Courier,monospace" font-size="12" font-weight="400" fill="#22282c" textLength="165" lengthAdjust="spacingAndGlyphs">Competitive programming</text><rect x="499.0" y="262" width="239.2" height="22" rx="4" fill="#fbfcfa" stroke="#55626a" stroke-width="1.4"/><text x="507" y="278" font-family="'Courier New',Courier,monospace" font-size="12" font-weight="400" fill="#22282c" textLength="223" lengthAdjust="spacingAndGlyphs">Software engineering principles</text></g><circle cx="36" cy="13" r="5.5" fill="#0f1417" opacity="0.85"/><rect x="14" y="10.5" width="44" height="9" rx="5" fill="#000" opacity="0.3"/><rect x="14" y="8.5" width="44" height="9" rx="5" fill="url(#coil)"/><circle cx="36" cy="39" r="5.5" fill="#0f1417" opacity="0.85"/><rect x="14" y="36.5" width="44" height="9" rx="5" fill="#000" opacity="0.3"/><rect x="14" y="34.5" width="44" height="9" rx="5" fill="url(#coil)"/><circle cx="36" cy="65" r="5.5" fill="#0f1417" opacity="0.85"/><rect x="14" y="62.5" width="44" height="9" rx="5" fill="#000" opacity="0.3"/><rect x="14" y="60.5" width="44" height="9" rx="5" fill="url(#coil)"/><circle cx="36" cy="91" r="5.5" fill="#0f1417" opacity="0.85"/><rect x="14" y="88.5" width="44" height="9" rx="5" fill="#000" opacity="0.3"/><rect x="14" y="86.5" width="44" height="9" rx="5" fill="url(#coil)"/><circle cx="36" cy="117" r="5.5" fill="#0f1417" opacity="0.85"/><rect x="14" y="114.5" width="44" height="9" rx="5" fill="#000" opacity="0.3"/><rect x="14" y="112.5" width="44" height="9" rx="5" fill="url(#coil)"/><circle cx="36" cy="143" r="5.5" fill="#0f1417" opacity="0.85"/><rect x="14" y="140.5" width="44" height="9" rx="5" fill="#000" opacity="0.3"/><rect x="14" y="138.5" width="44" height="9" rx="5" fill="url(#coil)"/><circle cx="36" cy="169" r="5.5" fill="#0f1417" opacity="0.85"/><rect x="14" y="166.5" width="44" height="9" rx="5" fill="#000" opacity="0.3"/><rect x="14" y="164.5" width="44" height="9" rx="5" fill="url(#coil)"/><circle cx="36" cy="195" r="5.5" fill="#0f1417" opacity="0.85"/><rect x="14" y="192.5" width="44" height="9" rx="5" fill="#000" opacity="0.3"/><rect x="14" y="190.5" width="44" height="9" rx="5" fill="url(#coil)"/><circle cx="36" cy="221" r="5.5" fill="#0f1417" opacity="0.85"/><rect x="14" y="218.5" width="44" height="9" rx="5" fill="#000" opacity="0.3"/><rect x="14" y="216.5" width="44" height="9" rx="5" fill="url(#coil)"/><circle cx="36" cy="247" r="5.5" fill="#0f1417" opacity="0.85"/><rect x="14" y="244.5" width="44" height="9" rx="5" fill="#000" opacity="0.3"/><rect x="14" y="242.5" width="44" height="9" rx="5" fill="url(#coil)"/><circle cx="36" cy="273" r="5.5" fill="#0f1417" opacity="0.85"/><rect x="14" y="270.5" width="44" height="9" rx="5" fill="#000" opacity="0.3"/><rect x="14" y="268.5" width="44" height="9" rx="5" fill="url(#coil)"/><circle cx="36" cy="299" r="5.5" fill="#0f1417" opacity="0.85"/><rect x="14" y="296.5" width="44" height="9" rx="5" fill="#000" opacity="0.3"/><rect x="14" y="294.5" width="44" height="9" rx="5" fill="url(#coil)"/><circle cx="36" cy="325" r="5.5" fill="#0f1417" opacity="0.85"/><rect x="14" y="322.5" width="44" height="9" rx="5" fill="#000" opacity="0.3"/><rect x="14" y="320.5" width="44" height="9" rx="5" fill="url(#coil)"/></svg>
